<svg width="64" height="64" viewBox="0 0 64 64" fill="none" xmlns="http://www.w3.org/2000/svg">
<path d="M22.7725 59.9501C23.6826 59.5584 24.32 58.6534 24.32 57.6V50.688C24.32 50.4358 24.3405 50.1734 24.3725 49.9072C24.3546 49.9123 24.3379 49.9162 24.32 49.92C24.32 49.92 20.48 49.92 19.712 49.92C17.792 49.92 16.128 49.152 15.36 47.616C14.464 45.952 14.08 43.136 11.776 41.6C11.392 41.344 11.648 40.96 12.416 40.96C13.184 41.088 14.848 42.112 15.872 43.52C17.024 44.928 18.176 46.08 20.224 46.08C23.4074 46.08 25.1136 45.92 26.1402 45.3696C27.3357 43.5917 28.9907 42.24 30.72 42.24V42.208C23.465 41.975 18.8301 39.5635 16.672 35.84C11.9808 35.8938 7.89632 36.3584 5.56544 36.745C5.4912 36.3264 5.4272 35.9053 5.37216 35.4816C7.67232 35.1027 11.5712 34.6534 16.0538 34.5677C15.9104 34.2144 15.7862 33.8522 15.6813 33.481C11.1872 33.2531 7.3088 33.431 5.20192 33.6051C5.17632 33.1802 5.14176 32.7565 5.13664 32.3264C7.24736 32.1536 11.0208 31.9808 15.3997 32.1843C15.2986 31.5443 15.2333 30.8902 15.2333 30.2093C15.2333 28.0333 16.0013 25.7293 17.4093 23.8093C16.7693 21.6333 15.8733 17.0253 17.6653 15.3613C21.1213 15.3613 23.5533 17.0253 24.7053 18.0493C26.88 17.152 29.312 16.64 32 16.64C34.688 16.64 37.12 17.152 39.168 18.048C40.32 17.024 42.752 15.36 46.208 15.36C48.128 17.152 47.104 21.76 46.464 23.808C47.872 25.728 48.64 27.904 48.512 30.208C48.512 30.8275 48.4544 31.4253 48.3712 32.0115C52.8499 31.7914 56.7258 31.968 58.8723 32.1421C58.8698 32.5734 58.8301 32.9946 58.807 33.4208C56.6682 33.2442 52.695 33.0624 48.1075 33.3069C47.9936 33.737 47.8554 34.1555 47.6915 34.5613C52.2304 34.6202 56.2227 35.0592 58.633 35.4432C58.5779 35.8682 58.5139 36.2893 58.4397 36.7066C55.9923 36.3149 51.8208 35.8566 47.0746 35.8336C44.9434 39.5174 40.393 41.92 33.28 42.2003V42.24C36.608 42.24 39.68 47.232 39.68 50.688V57.6C39.68 58.6534 40.3174 59.5584 41.2275 59.9501C52.9536 56.0691 61.44 45.0099 61.44 32C61.44 15.767 48.2342 2.56 32 2.56C15.7658 2.56 2.56 15.767 2.56 32C2.56 45.0099 11.0464 56.0691 22.7725 59.9501Z" fill="white"/>
</svg>
