<svg width="50" height="50" viewBox="0 0 50 50" fill="none" xmlns="http://www.w3.org/2000/svg">
<path d="M25 3.3335C13.0534 3.3335 3.33337 13.0535 3.33337 25.0002C3.33337 36.9468 13.0534 46.6668 25 46.6668C36.9467 46.6668 46.6667 36.9468 46.6667 25.0002C46.6667 13.0535 36.9467 3.3335 25 3.3335ZM19.4434 10.0002H30.5534C35.7618 10.0002 40 14.2369 40 19.4435V30.5536C40 35.7619 35.7633 40.0002 30.5567 40.0002H19.4467C14.2383 40.0002 10 35.7635 10 30.5568V19.4468C10 14.2384 14.2367 10.0002 19.4434 10.0002ZM19.4434 13.3335C16.0751 13.3335 13.3334 16.0768 13.3334 19.4468V30.5568C13.3334 33.9251 16.0767 36.6668 19.4467 36.6668H30.5567C33.925 36.6668 36.6667 33.9236 36.6667 30.5536V19.4435C36.6667 16.0752 33.9234 13.3335 30.5534 13.3335L19.4434 13.3335ZM32.78 16.1102C33.3933 16.1102 33.89 16.6069 33.89 17.2202C33.89 17.8336 33.3933 18.3335 32.78 18.3335C32.1666 18.3335 31.6667 17.8336 31.6667 17.2202C31.6667 16.6069 32.1666 16.1102 32.78 16.1102ZM25 16.6668C29.595 16.6668 33.3334 20.4052 33.3334 25.0002C33.3334 29.5952 29.595 33.3335 25 33.3335C20.405 33.3335 16.6667 29.5952 16.6667 25.0002C16.6667 20.4052 20.405 16.6668 25 16.6668ZM25 20.0002C22.2386 20.0002 20 22.2387 20 25.0002C20 27.7616 22.2386 30.0002 25 30.0002C27.7614 30.0002 30 27.7616 30 25.0002C30 22.2387 27.7614 20.0002 25 20.0002Z" fill="white"/>
</svg>
