<svg width="50" height="50" viewBox="0 0 50 50" fill="none" xmlns="http://www.w3.org/2000/svg">
<path d="M25 5C13.955 5 5 13.955 5 25C5 36.045 13.955 45 25 45C36.045 45 45 36.045 45 25C45 13.955 36.045 5 25 5ZM17.4933 14.005C18.8967 14.005 19.8317 14.94 19.8317 16.1867C19.8317 17.4333 18.8967 18.3683 17.3383 18.3683C15.935 18.37 15 17.4333 15 16.1867C15 14.94 15.935 14.005 17.4933 14.005ZM20 33.3333H15V20H20V33.3333ZM36.6667 33.3333H31.96V26.0467C31.96 24.0317 30.705 23.5667 30.235 23.5667C29.765 23.5667 28.195 23.8767 28.195 26.0467C28.195 26.3567 28.195 33.3333 28.195 33.3333H23.3333V20H28.1967V21.86C28.8233 20.775 30.0783 20 32.4317 20C34.785 20 36.6667 21.86 36.6667 26.0467V33.3333Z" fill="white"/>
</svg>
