<svg width="24" height="24" viewBox="0 0 24 24" fill="none" xmlns="http://www.w3.org/2000/svg">
<path d="M2.39994 3.84C2.27273 3.8382 2.14643 3.8617 2.02838 3.90914C1.91033 3.95657 1.80289 4.027 1.71229 4.11632C1.6217 4.20565 1.54976 4.31208 1.50066 4.42945C1.45156 4.54682 1.42627 4.67277 1.42627 4.8C1.42627 4.92722 1.45156 5.05318 1.50066 5.17054C1.54976 5.28791 1.6217 5.39435 1.71229 5.48367C1.80289 5.57299 1.91033 5.64342 2.02838 5.69086C2.14643 5.73829 2.27273 5.7618 2.39994 5.76H21.5999C21.7271 5.7618 21.8534 5.73829 21.9715 5.69086C22.0895 5.64342 22.197 5.57299 22.2876 5.48367C22.3782 5.39435 22.4501 5.28791 22.4992 5.17054C22.5483 5.05318 22.5736 4.92722 22.5736 4.8C22.5736 4.67277 22.5483 4.54682 22.4992 4.42945C22.4501 4.31208 22.3782 4.20565 22.2876 4.11632C22.197 4.027 22.0895 3.95657 21.9715 3.90914C21.8534 3.8617 21.7271 3.8382 21.5999 3.84H2.39994ZM2.39994 11.04C2.27273 11.0382 2.14643 11.0617 2.02838 11.1091C1.91033 11.1566 1.80289 11.227 1.71229 11.3163C1.6217 11.4056 1.54976 11.5121 1.50066 11.6295C1.45156 11.7468 1.42627 11.8728 1.42627 12C1.42627 12.1272 1.45156 12.2532 1.50066 12.3705C1.54976 12.4879 1.6217 12.5944 1.71229 12.6837C1.80289 12.773 1.91033 12.8434 2.02838 12.8909C2.14643 12.9383 2.27273 12.9618 2.39994 12.96H21.5999C21.7271 12.9618 21.8534 12.9383 21.9715 12.8909C22.0895 12.8434 22.197 12.773 22.2876 12.6837C22.3782 12.5944 22.4501 12.4879 22.4992 12.3705C22.5483 12.2532 22.5736 12.1272 22.5736 12C22.5736 11.8728 22.5483 11.7468 22.4992 11.6295C22.4501 11.5121 22.3782 11.4056 22.2876 11.3163C22.197 11.227 22.0895 11.1566 21.9715 11.1091C21.8534 11.0617 21.7271 11.0382 21.5999 11.04H2.39994ZM2.39994 18.24C2.27273 18.2382 2.14643 18.2617 2.02838 18.3091C1.91033 18.3566 1.80289 18.427 1.71229 18.5163C1.6217 18.6057 1.54976 18.7121 1.50066 18.8295C1.45156 18.9468 1.42627 19.0728 1.42627 19.2C1.42627 19.3272 1.45156 19.4532 1.50066 19.5705C1.54976 19.6879 1.6217 19.7944 1.71229 19.8837C1.80289 19.973 1.91033 20.0434 2.02838 20.0909C2.14643 20.1383 2.27273 20.1618 2.39994 20.16H21.5999C21.7271 20.1618 21.8534 20.1383 21.9715 20.0909C22.0895 20.0434 22.197 19.973 22.2876 19.8837C22.3782 19.7944 22.4501 19.6879 22.4992 19.5705C22.5483 19.4532 22.5736 19.3272 22.5736 19.2C22.5736 19.0728 22.5483 18.9468 22.4992 18.8295C22.4501 18.7121 22.3782 18.6057 22.2876 18.5163C22.197 18.427 22.0895 18.3566 21.9715 18.3091C21.8534 18.2617 21.7271 18.2382 21.5999 18.24H2.39994Z" fill="#334258"/>
</svg>
